<?xml version="1.0" encoding="UTF-8" standalone="no"?><!DOCTYPE svg PUBLIC "-//W3C//DTD SVG 1.1//EN" "http://www.w3.org/Graphics/SVG/1.1/DTD/svg11.dtd"><svg width="100%" height="100%" viewBox="0 0 800 800" version="1.1" xmlns="http://www.w3.org/2000/svg" xmlns:xlink="http://www.w3.org/1999/xlink" xml:space="preserve" xmlns:serif="http://www.serif.com/" style="fill-rule:evenodd;clip-rule:evenodd;stroke-linejoin:round;stroke-miterlimit:2;"><path d="M679.907,118.187c73.58,73.58 119.268,173.873 119.268,281.978c0,109.246 -45.689,207.328 -119.268,280.872c-73.58,73.544 -172.768,118.162 -280.872,118.162c-109.246,0 -207.328,-44.583 -280.872,-118.162c-73.544,-73.58 -118.162,-171.662 -118.162,-280.872c-0,-108.105 44.583,-208.434 118.162,-281.978c73.58,-73.544 171.662,-118.162 280.872,-118.162c108.105,0 207.328,44.583 280.872,118.162Zm-235.184,507.139l2.247,0c3.353,0 6.705,1.106 8.917,4.458c2.247,2.247 4.458,4.458 8.917,4.458c1.106,0 2.247,-1.106 2.247,-3.353c0,-4.458 1.106,-8.917 1.106,-10.022c1.106,-3.353 3.353,-3.353 5.564,-3.353c1.106,0 1.106,0 1.106,-2.247l-2.247,-2.247c-1.106,0 -2.247,1.106 -2.247,2.247c-1.106,1.106 -2.247,2.247 -3.353,0l-6.705,4.458l-7.811,-2.247l-13.375,-20.08l4.458,-28.997c0,-1.106 -1.106,-3.353 -4.458,-4.458c-3.353,-1.106 -3.353,-3.353 -2.247,-4.458c-4.458,-2.247 -10.022,-4.458 -16.727,-4.458c-1.106,0 -4.458,1.106 -10.022,2.247c-5.564,0 -8.917,0 -8.917,-2.247c0,-3.353 3.353,-10.022 5.564,-17.833c1.106,-3.353 2.247,-8.917 3.353,-11.164c0,-2.247 1.106,-4.458 1.106,-4.458l5.564,-13.375l-1.106,-2.247l-7.811,-1.106c-2.247,0 -10.022,4.458 -15.622,8.917c-5.564,6.705 -10.022,12.269 -10.022,16.727l-22.291,4.458c-4.458,0 -8.917,-1.106 -12.269,-5.564c-1.106,-5.564 -4.458,-12.269 -8.917,-18.939c-4.458,-5.564 -5.564,-11.164 -5.564,-16.727c0,-6.705 1.106,-15.622 3.353,-21.186c2.247,-6.705 2.247,-14.481 -2.247,-21.186c1.106,0 4.458,-2.247 2.247,-4.458l5.564,-6.705l1.106,-1.106l1.106,1.106c4.458,-3.353 12.269,-4.458 18.939,-3.353c7.811,1.106 12.269,-2.247 14.481,-7.811l7.811,7.811c2.247,1.106 6.705,-6.705 6.705,-8.917l-3.353,-2.247l20.08,-4.458l1.106,2.247l8.917,0l11.164,6.705c1.106,0 2.247,-1.106 3.353,-2.247c2.247,-2.247 3.353,-2.247 4.458,-1.106l10.022,11.164c-1.106,2.247 -1.106,4.458 -1.106,6.705c1.106,1.106 2.247,2.247 2.247,3.353c0,4.458 10.022,24.538 15.622,24.538c3.353,0 4.458,-2.247 3.353,-6.705l0,-8.917c0,-5.564 -1.106,-12.269 -3.353,-18.939c-3.353,-5.564 -5.564,-13.375 -7.811,-20.08l0,-2.247c0,-3.353 2.247,-6.705 6.705,-8.917c3.353,-2.247 5.564,-4.458 5.564,-4.458c3.353,-2.247 6.705,-5.564 11.164,-7.811c3.353,-2.247 6.705,-7.811 8.917,-11.164l3.353,-7.811l0,-4.458l3.353,0c0,0 2.247,-1.106 2.247,-3.353c0,0 -1.106,-1.106 -2.247,-1.106c-1.106,-1.106 -4.458,-3.353 -6.705,-5.564l2.247,-2.247c3.353,-3.353 4.458,-11.164 2.247,-14.481l8.917,-4.458c-2.247,4.458 4.458,5.564 6.705,4.458l4.458,-10.022c-2.247,-5.564 -3.353,0 0,-6.705c3.353,-1.106 6.705,-2.247 10.022,-4.458c3.353,-1.106 5.564,-2.247 8.917,-2.247c1.106,0 2.247,1.106 2.247,1.106c2.247,0 3.353,-1.106 3.353,-1.106c0,-3.353 -1.106,-5.564 -2.247,-5.564l5.564,-12.269c4.458,0 8.917,-2.247 11.164,-6.705l8.917,-1.106c2.247,0 3.353,-1.106 3.353,-3.353l0,-2.247l16.727,-4.458l2.247,-5.564l-4.458,-6.705c0,0 1.106,-1.106 1.106,-2.247c0,-1.141 -1.106,-2.247 -2.247,-3.353c-1.106,0 -2.247,-1.106 -3.353,-1.106c-1.106,-1.106 -2.247,-2.247 -3.353,-2.247l8.917,0c0,0 4.458,-1.106 4.458,-4.458c0,-4.458 -2.247,-5.564 -6.705,-5.564c-12.269,0 -31.208,4.458 -37.913,17.833l-6.705,3.353l8.917,-8.917l1.106,-2.247c0,-1.106 -1.106,-2.247 -3.353,-3.353l-3.353,0c11.164,0 17.833,-3.353 22.291,-6.705c3.353,-3.353 6.705,-6.705 14.481,-8.917c7.811,1.106 15.622,1.106 23.397,1.106c6.705,-1.106 13.375,-1.106 21.186,-1.106c3.353,-2.247 7.811,-6.705 10.022,-11.164l11.164,-1.106c2.247,2.247 10.022,-3.353 10.022,-6.705c0,-3.353 -1.106,-4.458 -4.458,-5.564c-3.353,-1.106 -6.705,-3.353 -6.705,-6.705l0,-3.353c1.106,-1.106 0,-2.247 -1.106,-2.247c-4.458,0 -15.622,5.564 -18.939,7.811c-2.247,2.247 -3.353,-1.106 -3.353,-3.353l1.106,1.106l4.458,-2.247l11.164,-4.458l1.106,-1.106c0,-4.458 -6.705,-5.564 -8.917,-5.564c-1.106,0 -3.353,1.106 -5.564,2.247c-2.247,0 -4.458,0 -4.458,-2.247l1.106,-2.247c-7.811,-5.564 -14.481,-16.727 -14.481,-20.08l0,-4.458c1.106,-1.106 0,-1.106 -2.247,-1.106l-3.353,0c-1.106,1.106 -2.247,0 -2.247,-2.247c0,-2.247 -4.458,-14.481 -10.022,-14.481l-3.353,3.353c0,2.247 -1.106,3.353 -3.353,4.458c-2.247,1.106 -3.353,2.247 -3.353,3.353l-1.106,0l-11.164,6.705c0,-2.247 -1.106,-2.247 -2.247,-1.106c-1.106,0 -1.106,1.106 -3.353,1.106l-2.247,0c5.564,0 4.458,-7.811 0,-7.811l-8.917,1.106c-2.247,0 -2.247,0 0,-2.247c1.106,-2.247 3.353,-4.458 1.106,-6.705c0,-2.247 -1.106,-2.247 -2.247,-1.106l2.247,-3.353c2.247,-1.106 -1.106,-5.564 -3.353,-7.811l-10.022,-1.106l-6.705,-6.705c-1.106,1.106 -2.247,0 -4.458,-1.106c-1.106,-1.106 -3.353,-3.353 -4.458,-3.353l-7.811,3.353l-20.08,-4.458c-2.247,0 -5.564,1.106 -5.564,4.458c0,1.106 0,2.247 1.106,2.247c2.247,1.106 2.247,2.247 2.247,3.353c0,1.106 1.106,5.564 2.247,11.164c0,5.564 0,7.811 -3.353,6.705l-4.458,6.705c0,2.247 2.247,3.353 3.353,3.353c3.353,2.247 6.705,5.564 8.917,8.917c2.247,2.247 2.247,5.564 1.106,8.917l-21.186,16.727l0,1.106c0,3.353 0,5.564 1.106,7.811c2.247,2.247 2.247,5.564 4.458,8.917c5.564,2.247 5.564,4.458 1.106,6.705c-2.247,0 -4.458,1.106 -6.705,2.247l-2.247,2.247c0,1.106 -1.106,1.106 -2.247,1.106l-5.564,0c0,0 0,-1.106 1.106,-1.106c0,0 1.106,-1.106 1.106,-2.247l-10.022,-5.564l-4.458,-7.811c1.106,-3.353 1.106,-5.564 0,-6.705c-1.106,-1.141 -1.106,-3.353 -1.106,-5.564c0,-2.211 -2.247,-7.811 -6.705,-7.811c-5.564,0 -10.022,1.106 -15.622,2.247c2.247,-1.106 -2.247,-6.705 -3.353,-6.705c-5.564,0 -12.269,-2.247 -20.08,-6.705c-7.811,-4.458 -13.375,-6.705 -17.833,-6.705c-3.353,0 -10.022,1.106 -14.481,3.353c2.247,-1.106 2.247,-2.247 3.353,-5.564l-6.705,-11.164l-1.106,-1.106c-2.247,0 -4.458,1.106 -6.705,3.353c-2.247,1.106 -5.564,0 -5.564,-4.458c0,-1.106 1.106,-2.247 1.106,-2.247c1.106,-1.106 1.106,-1.106 0,-2.247c0,-3.353 1.106,-6.705 4.458,-10.022c2.247,-2.247 3.353,-6.705 4.458,-10.022c2.247,-1.106 2.247,-2.247 2.247,-3.353c0,-2.247 1.106,-2.247 2.247,-2.247c2.247,0 5.564,-1.106 7.811,-2.247c2.247,-2.247 4.458,-3.353 7.811,-3.353l1.106,-3.353c0,-1.106 -3.353,-2.247 -10.022,-3.353c-7.811,-1.106 -11.164,-1.106 -11.164,-3.353l1.106,-1.106c6.705,2.247 12.269,3.353 15.622,3.353c6.705,1.106 10.022,-1.106 16.727,-4.458c2.247,-1.106 8.917,-3.353 14.481,-6.705c0,-1.106 -1.106,-1.106 -4.458,-2.247l4.458,0l7.811,-4.458l0,-4.458l-2.247,-2.247l11.164,-2.247c-1.106,-2.247 1.106,-3.353 2.247,-3.353c2.247,0 4.458,1.106 6.705,3.353c2.247,2.247 3.353,2.247 4.458,2.247l10.022,-3.353c0,-1.106 1.106,-1.106 3.353,-1.106c2.247,-1.106 3.353,-2.247 2.247,-3.353l-7.811,-7.811c-2.247,0 -3.353,-3.353 -1.106,-3.353c3.353,0 5.564,-1.106 3.353,-4.458c-2.247,-1.106 -5.564,-3.353 -8.917,-4.458c-3.353,-2.247 -6.705,-3.353 -10.022,-3.353c-2.247,0 -6.705,1.106 -6.705,4.458c0,2.247 1.106,2.247 2.247,2.247c2.247,0 3.353,1.106 3.353,2.247c2.247,1.106 1.106,2.247 -1.106,2.247l-2.247,0c-2.247,0 -5.564,2.247 -7.811,6.705c-2.247,3.353 -5.564,6.705 -8.917,7.811c-1.106,0 -1.106,0 -1.106,-1.106c1.106,-1.106 0,-1.106 0,-2.247c-1.106,-1.106 -2.247,-2.247 -3.353,-2.247c-2.247,-1.106 -4.458,-1.106 -4.458,-2.247c0,-2.247 2.247,-3.353 4.458,-6.705c1.106,-3.353 -2.247,-4.458 -7.811,-4.458c-2.247,0 -4.458,1.106 -5.564,3.353c-1.106,1.106 -2.247,3.353 -3.353,5.564l-11.164,-12.269l-8.917,-1.106c0,-2.247 1.106,-4.458 2.247,-6.705c2.247,-4.458 -6.705,-10.022 -10.022,-13.375c-1.106,0 -3.353,-1.106 -5.564,-1.106c-1.106,0 -7.811,5.564 -12.269,7.811c-2.247,1.106 -3.353,2.247 -3.353,3.353c0,2.247 2.247,2.247 5.564,2.247l-1.106,0c-2.247,0 -3.353,1.106 -3.353,4.458c0,1.106 8.917,3.353 11.164,3.353c2.247,0 4.458,0 4.458,1.106c1.106,1.106 1.106,1.106 3.353,1.106l3.353,-1.106l0,2.247l-1.106,2.247l1.106,3.353l-11.164,5.564l-1.106,1.106c-1.106,0 -2.247,0 -2.247,1.106c0,1.106 0,3.353 2.247,5.564c1.106,2.247 0,3.353 -5.564,3.353l-3.353,-2.247c0,-2.247 -2.247,-4.458 -7.811,-6.705c-10.022,-3.353 -27.855,-4.458 -43.477,-4.458c-7.811,-1.106 -13.375,-1.106 -17.833,-1.106l-16.727,5.564l4.458,8.917c-1.106,0 -3.353,1.106 -3.353,1.106c-4.458,-3.353 -11.164,-10.022 -13.375,-10.022l-7.811,-1.106c-24.538,1.106 -53.499,24.538 -81.355,52.394c-27.855,27.855 -52.394,59.063 -64.663,78.038l2.247,0c2.247,0 3.353,-1.106 6.705,-2.247c2.247,-1.106 3.353,1.106 3.353,4.458c0,2.247 0,3.353 -1.106,5.564c-1.106,2.211 1.106,3.353 5.564,3.353c1.106,0 2.247,-1.106 2.247,-3.353c1.106,-2.247 1.106,-2.247 1.106,0l2.247,7.811l0,1.106c0,1.106 -1.106,2.247 -2.247,3.353c-3.353,1.106 0,4.458 3.353,4.458l5.564,0l2.247,-1.106l1.106,-1.106c0,4.458 4.458,5.564 7.811,5.564l1.106,0c0,0 -1.106,2.247 -2.247,3.353c-2.247,0 -2.247,1.106 0,2.247l11.164,2.247l0,1.106l6.705,14.481c0,2.247 -2.247,7.811 -4.458,7.811c-2.211,0 -2.247,-1.106 -2.247,-2.247c1.106,0 1.106,-1.106 1.106,-3.353c0,-1.106 -1.106,-2.247 -1.106,-3.353c-1.106,-1.106 -3.353,-1.106 -7.811,-1.106c-1.106,0 -4.458,0 -2.247,3.353l5.564,12.269l2.247,2.247c-6.705,0 -7.811,22.291 -7.811,28.997l1.106,8.917l1.106,3.353l0,1.106l-1.106,10.022l13.375,22.291l3.353,0c0,1.106 0,2.247 -1.106,3.353c-1.106,1.106 -1.106,2.247 -1.106,4.458l4.458,3.353c0,6.705 2.247,7.811 7.811,13.375c0,3.353 4.458,7.811 11.164,12.269c7.811,3.353 12.269,5.564 14.481,6.705c4.458,15.622 12.269,32.314 23.397,42.372l1.106,6.705l-2.247,2.247c-2.247,0 -2.247,1.106 -1.106,2.247l8.917,4.458c2.247,-2.247 3.353,0 5.564,3.353c2.247,4.458 3.353,6.705 4.458,7.811l0,3.353l5.564,7.811l2.247,2.247l2.247,-5.564c-2.247,-5.564 -10.022,-17.833 -16.727,-27.855c-3.353,-5.564 -6.705,-11.164 -10.022,-15.622c-2.247,-3.353 -3.353,-5.564 -3.353,-6.705c0,-1.141 -1.106,-13.375 -2.247,-15.622c1.106,1.106 4.458,2.247 6.705,3.353c3.353,1.106 6.705,2.247 8.917,3.353c1.106,8.917 4.458,15.622 10.022,21.186c4.458,4.458 8.917,10.022 12.269,16.727c-2.247,2.247 2.247,2.247 4.458,2.247c1.106,2.247 1.106,3.353 1.106,7.811c10.022,10.022 30.102,33.455 30.102,43.477l0,1.106l-2.247,6.705c4.458,10.022 14.481,17.833 24.538,21.186l2.247,0c5.564,3.353 13.375,6.705 21.186,10.022c6.705,4.458 13.375,7.811 20.08,10.022l11.164,-6.705c5.564,1.106 12.269,6.705 20.08,13.375c7.811,6.67 17.833,14.481 31.208,16.727c4.458,-3.353 6.705,-2.247 6.705,2.247l0,2.247l12.269,14.481l2.247,6.705c6.705,4.458 14.481,11.164 17.833,18.939l0.107,0.143Zm-143.771,-560.639l-1.106,-2.247c-2.247,-1.106 -7.811,-3.353 -10.022,-3.353c-1.106,0 -3.353,1.106 -7.811,2.247c-7.811,4.458 -20.08,7.811 -28.997,12.269c-4.458,2.247 -7.811,3.353 -10.022,3.353c4.458,0 8.917,-1.106 13.375,-3.353c3.353,-2.247 7.811,-3.353 12.269,-3.353l3.353,2.247c2.247,1.106 3.353,1.106 5.564,1.106c1.106,0 2.247,0 4.458,2.247c2.247,-1.106 4.458,-1.106 7.811,1.106l3.353,-2.247l0,-4.458l-1.106,-2.247l2.247,1.106c2.247,0 4.458,-1.106 6.705,-4.458l-0.071,0.036Zm168.274,653.121l1.106,6.705c0,2.247 -1.106,2.247 -2.247,4.458c-3.353,2.247 -8.917,5.564 -8.917,12.269c0,1.106 1.106,2.247 1.106,4.458c1.106,1.106 2.247,2.247 2.247,4.458c0,1.106 -1.106,2.247 -1.106,3.353c76.897,-13.375 146.018,-50.147 199.517,-106.999l-1.106,0c-2.247,1.106 -5.564,1.106 -6.705,0l-3.353,1.106l-5.564,-1.106l-3.353,0c-2.247,-3.353 -4.458,-5.564 -7.811,-7.811l-1.106,-1.106c-1.106,0 -2.247,0 -2.247,2.247c0,-10.022 -7.811,-18.939 -16.727,-18.939c0,1.106 -1.106,1.106 -1.106,1.106l-2.247,0l-2.247,-1.106l3.353,0l2.247,-6.705l-5.564,-3.353l-1.106,1.106c-4.458,-1.106 -7.811,-3.353 -10.022,-7.811l-3.353,-1.106l0,1.106l-2.247,1.106c-4.458,1.106 -7.811,2.247 -10.022,3.353c-4.458,-1.106 -7.811,-3.353 -8.917,-4.458l-13.375,1.106c0,-4.458 -2.247,-10.022 -7.811,-10.022c-6.705,0 -15.622,0 -17.833,7.811c0,2.247 1.106,5.564 2.247,6.705l0,4.458l-1.106,2.247l-1.106,1.106l-1.106,0l-3.353,-7.811l3.353,-4.458c-1.106,-2.247 -1.106,-3.353 -1.106,-5.564c0,-2.211 -1.106,-3.353 -1.106,-5.564l-1.106,-1.106l-3.353,0l-6.705,4.458l-4.458,0l-1.106,2.247c-1.106,0 -1.106,1.106 -1.106,2.247c0,0 -1.106,0 -1.106,1.106l-1.106,-1.106l-4.458,0c-2.247,2.247 -3.353,5.564 -4.458,8.917l2.247,2.247l-5.564,2.247l-1.106,2.247l-3.353,2.247l0,1.106l-1.106,0l0,5.564l-1.106,0c-1.106,-4.458 -4.458,-8.917 -11.164,-12.269l-3.353,0l0,2.247c0,2.247 2.247,3.353 4.458,4.458c2.247,2.247 3.353,4.458 4.458,5.564c-1.106,-1.106 -3.353,0 -3.353,1.106l0,2.247l6.705,10.022l0,18.939l2.247,4.458c-2.247,5.564 -4.458,11.164 -7.811,14.481l0,-1.106l-2.247,1.106l-1.106,1.106l-1.106,4.458l1.106,1.106l0,1.106l-2.247,-2.247l-1.106,6.705l-5.564,2.247c-2.247,1.106 -3.353,2.247 -2.247,5.564c0,2.247 -1.106,3.353 -3.353,4.458l1.106,2.247l-2.247,3.353c0,1.106 0,2.247 -1.106,2.247l0,4.458l1.106,7.811l2.247,1.106l2.247,-1.106l1.07,-4.637Z" style="fill-rule:nonzero;"/></svg>